<mxfile host="app.diagrams.net" modified="2023-11-03T02:11:16.054Z" agent="Mozilla/5.0 (Windows NT 10.0; Win64; x64) AppleWebKit/537.36 (KHTML, like Gecko) Chrome/118.0.0.0 Safari/537.36" etag="Mt7VKUAdpkgbPuDBwxPg" version="22.0.8" type="github">
  <diagram id="C5RBs43oDa-KdzZeNtuy" name="Page-1">
    <mxGraphModel dx="1621" dy="456" grid="1" gridSize="10" guides="1" tooltips="1" connect="1" arrows="1" fold="1" page="1" pageScale="1" pageWidth="827" pageHeight="1169" math="0" shadow="0">
      <root>
        <mxCell id="WIyWlLk6GJQsqaUBKTNV-0" />
        <mxCell id="WIyWlLk6GJQsqaUBKTNV-1" parent="WIyWlLk6GJQsqaUBKTNV-0" />
        <mxCell id="tgqPMwLS0RTPa-l0zuow-1" style="edgeStyle=orthogonalEdgeStyle;rounded=0;orthogonalLoop=1;jettySize=auto;html=1;" edge="1" parent="WIyWlLk6GJQsqaUBKTNV-1" source="tgqPMwLS0RTPa-l0zuow-0" target="tgqPMwLS0RTPa-l0zuow-2">
          <mxGeometry relative="1" as="geometry">
            <mxPoint x="85" y="140" as="targetPoint" />
          </mxGeometry>
        </mxCell>
        <mxCell id="tgqPMwLS0RTPa-l0zuow-0" value="START" style="rounded=1;whiteSpace=wrap;html=1;arcSize=50;" vertex="1" parent="WIyWlLk6GJQsqaUBKTNV-1">
          <mxGeometry y="60" width="170" height="30" as="geometry" />
        </mxCell>
        <mxCell id="tgqPMwLS0RTPa-l0zuow-3" style="edgeStyle=orthogonalEdgeStyle;rounded=0;orthogonalLoop=1;jettySize=auto;html=1;" edge="1" parent="WIyWlLk6GJQsqaUBKTNV-1" source="tgqPMwLS0RTPa-l0zuow-2" target="tgqPMwLS0RTPa-l0zuow-4">
          <mxGeometry relative="1" as="geometry">
            <mxPoint x="85" y="200" as="targetPoint" />
          </mxGeometry>
        </mxCell>
        <mxCell id="tgqPMwLS0RTPa-l0zuow-2" value="Input jari-jari (r)" style="shape=parallelogram;perimeter=parallelogramPerimeter;whiteSpace=wrap;html=1;fixedSize=1;" vertex="1" parent="WIyWlLk6GJQsqaUBKTNV-1">
          <mxGeometry x="-22.5" y="130" width="215" height="30" as="geometry" />
        </mxCell>
        <mxCell id="tgqPMwLS0RTPa-l0zuow-5" value="Tidak" style="edgeStyle=orthogonalEdgeStyle;rounded=0;orthogonalLoop=1;jettySize=auto;html=1;" edge="1" parent="WIyWlLk6GJQsqaUBKTNV-1" source="tgqPMwLS0RTPa-l0zuow-4" target="tgqPMwLS0RTPa-l0zuow-6">
          <mxGeometry x="-0.4668" y="15" relative="1" as="geometry">
            <mxPoint x="340" y="265" as="targetPoint" />
            <mxPoint x="-3" y="1" as="offset" />
          </mxGeometry>
        </mxCell>
        <mxCell id="tgqPMwLS0RTPa-l0zuow-9" value="Ya" style="edgeStyle=orthogonalEdgeStyle;rounded=0;orthogonalLoop=1;jettySize=auto;html=1;" edge="1" parent="WIyWlLk6GJQsqaUBKTNV-1" source="tgqPMwLS0RTPa-l0zuow-4" target="tgqPMwLS0RTPa-l0zuow-10">
          <mxGeometry x="-0.208" y="15" relative="1" as="geometry">
            <mxPoint x="85" y="380" as="targetPoint" />
            <mxPoint as="offset" />
          </mxGeometry>
        </mxCell>
        <mxCell id="tgqPMwLS0RTPa-l0zuow-4" value="Jari-jari dapat &lt;br&gt;dibagi 7" style="rhombus;whiteSpace=wrap;html=1;" vertex="1" parent="WIyWlLk6GJQsqaUBKTNV-1">
          <mxGeometry x="-30" y="200" width="230" height="130" as="geometry" />
        </mxCell>
        <mxCell id="tgqPMwLS0RTPa-l0zuow-13" style="edgeStyle=elbowEdgeStyle;rounded=0;orthogonalLoop=1;jettySize=auto;html=1;exitX=0.865;exitY=0.982;exitDx=0;exitDy=0;exitPerimeter=0;" edge="1" parent="WIyWlLk6GJQsqaUBKTNV-1" source="tgqPMwLS0RTPa-l0zuow-6">
          <mxGeometry relative="1" as="geometry">
            <mxPoint x="90" y="420" as="targetPoint" />
            <mxPoint x="550" y="281.25" as="sourcePoint" />
            <Array as="points">
              <mxPoint x="430" y="340" />
            </Array>
          </mxGeometry>
        </mxCell>
        <mxCell id="tgqPMwLS0RTPa-l0zuow-6" value="phi = 3,14" style="shape=parallelogram;perimeter=parallelogramPerimeter;whiteSpace=wrap;html=1;fixedSize=1;" vertex="1" parent="WIyWlLk6GJQsqaUBKTNV-1">
          <mxGeometry x="340" y="248.75" width="200" height="32.5" as="geometry" />
        </mxCell>
        <mxCell id="tgqPMwLS0RTPa-l0zuow-11" style="edgeStyle=orthogonalEdgeStyle;rounded=0;orthogonalLoop=1;jettySize=auto;html=1;" edge="1" parent="WIyWlLk6GJQsqaUBKTNV-1" source="tgqPMwLS0RTPa-l0zuow-10" target="tgqPMwLS0RTPa-l0zuow-12">
          <mxGeometry relative="1" as="geometry">
            <mxPoint x="85" y="440" as="targetPoint" />
          </mxGeometry>
        </mxCell>
        <mxCell id="tgqPMwLS0RTPa-l0zuow-10" value="phi = 22/7" style="shape=parallelogram;perimeter=parallelogramPerimeter;whiteSpace=wrap;html=1;fixedSize=1;" vertex="1" parent="WIyWlLk6GJQsqaUBKTNV-1">
          <mxGeometry x="-8.75" y="370" width="187.5" height="30" as="geometry" />
        </mxCell>
        <mxCell id="tgqPMwLS0RTPa-l0zuow-14" value="Ya" style="edgeStyle=elbowEdgeStyle;rounded=0;orthogonalLoop=1;jettySize=auto;html=1;" edge="1" parent="WIyWlLk6GJQsqaUBKTNV-1" source="tgqPMwLS0RTPa-l0zuow-12" target="tgqPMwLS0RTPa-l0zuow-15">
          <mxGeometry x="-0.0047" y="14" relative="1" as="geometry">
            <mxPoint x="85.5" y="620" as="targetPoint" />
            <mxPoint as="offset" />
          </mxGeometry>
        </mxCell>
        <mxCell id="tgqPMwLS0RTPa-l0zuow-21" style="edgeStyle=elbowEdgeStyle;rounded=0;orthogonalLoop=1;jettySize=auto;html=1;" edge="1" parent="WIyWlLk6GJQsqaUBKTNV-1" source="tgqPMwLS0RTPa-l0zuow-12" target="tgqPMwLS0RTPa-l0zuow-22">
          <mxGeometry relative="1" as="geometry">
            <mxPoint x="340" y="519.5" as="targetPoint" />
          </mxGeometry>
        </mxCell>
        <mxCell id="tgqPMwLS0RTPa-l0zuow-12" value="Melakukan&lt;br&gt;perhitungan&lt;br&gt;Luas Lingkaran" style="rhombus;whiteSpace=wrap;html=1;" vertex="1" parent="WIyWlLk6GJQsqaUBKTNV-1">
          <mxGeometry x="-27.5" y="450" width="225" height="139" as="geometry" />
        </mxCell>
        <mxCell id="tgqPMwLS0RTPa-l0zuow-16" style="edgeStyle=elbowEdgeStyle;rounded=0;orthogonalLoop=1;jettySize=auto;html=1;" edge="1" parent="WIyWlLk6GJQsqaUBKTNV-1" target="tgqPMwLS0RTPa-l0zuow-17">
          <mxGeometry relative="1" as="geometry">
            <mxPoint x="86" y="670" as="targetPoint" />
            <mxPoint x="86" y="640" as="sourcePoint" />
          </mxGeometry>
        </mxCell>
        <mxCell id="tgqPMwLS0RTPa-l0zuow-15" value="Luas Lingkaran =&amp;nbsp;í µí½… x rÂ²" style="rounded=0;whiteSpace=wrap;html=1;" vertex="1" parent="WIyWlLk6GJQsqaUBKTNV-1">
          <mxGeometry x="-27" y="610" width="230" height="30" as="geometry" />
        </mxCell>
        <mxCell id="tgqPMwLS0RTPa-l0zuow-18" style="edgeStyle=elbowEdgeStyle;rounded=0;orthogonalLoop=1;jettySize=auto;html=1;" edge="1" parent="WIyWlLk6GJQsqaUBKTNV-1" source="tgqPMwLS0RTPa-l0zuow-17" target="tgqPMwLS0RTPa-l0zuow-20">
          <mxGeometry relative="1" as="geometry">
            <mxPoint x="86" y="740" as="targetPoint" />
          </mxGeometry>
        </mxCell>
        <mxCell id="tgqPMwLS0RTPa-l0zuow-17" value="Tampilkan Luas&amp;nbsp;&lt;br&gt;Lingkaran" style="shape=parallelogram;perimeter=parallelogramPerimeter;whiteSpace=wrap;html=1;fixedSize=1;" vertex="1" parent="WIyWlLk6GJQsqaUBKTNV-1">
          <mxGeometry x="-21.25" y="670" width="214.5" height="50" as="geometry" />
        </mxCell>
        <mxCell id="tgqPMwLS0RTPa-l0zuow-20" value="END" style="rounded=1;whiteSpace=wrap;html=1;arcSize=50;" vertex="1" parent="WIyWlLk6GJQsqaUBKTNV-1">
          <mxGeometry x="1.6300000000000008" y="760" width="168.75" height="40" as="geometry" />
        </mxCell>
        <mxCell id="tgqPMwLS0RTPa-l0zuow-22" value="" style="shape=parallelogram;perimeter=parallelogramPerimeter;whiteSpace=wrap;html=1;fixedSize=1;" vertex="1" parent="WIyWlLk6GJQsqaUBKTNV-1">
          <mxGeometry x="340" y="489.5" width="290" height="60" as="geometry" />
        </mxCell>
      </root>
    </mxGraphModel>
  </diagram>
</mxfile>
